<?xml version="1.0" encoding="UTF-8" standalone="no"?>
<!-- Created with Inkscape (http://www.inkscape.org/) -->

<svg
   width="512"
   height="512"
   viewBox="0 0 512 512"
   version="1.1"
   id="svg1"
   xml:space="preserve"
   inkscape:version="1.4.2 (ebf0e940d0, 2025-05-08)"
   sodipodi:docname="eonvelope2.svg"
   inkscape:export-filename="eonvelope2.png"
   inkscape:export-xdpi="96"
   inkscape:export-ydpi="96"
   xmlns:inkscape="http://www.inkscape.org/namespaces/inkscape"
   xmlns:sodipodi="http://sodipodi.sourceforge.net/DTD/sodipodi-0.dtd"
   xmlns:xlink="http://www.w3.org/1999/xlink"
   xmlns="http://www.w3.org/2000/svg"
   xmlns:svg="http://www.w3.org/2000/svg"><sodipodi:namedview
     id="namedview1"
     pagecolor="#ffffff"
     bordercolor="#000000"
     borderopacity="0.25"
     inkscape:showpageshadow="2"
     inkscape:pageopacity="0.0"
     inkscape:pagecheckerboard="0"
     inkscape:deskcolor="#d1d1d1"
     inkscape:document-units="px"
     inkscape:zoom="0.83000003"
     inkscape:cx="24.698794"
     inkscape:cy="239.75903"
     inkscape:window-width="1920"
     inkscape:window-height="1011"
     inkscape:window-x="0"
     inkscape:window-y="0"
     inkscape:window-maximized="1"
     inkscape:current-layer="layer1"
     showguides="false" /><defs
     id="defs1"><linearGradient
       id="linearGradient10"
       inkscape:collect="always"><stop
         style="stop-color:#3e7bb6;stop-opacity:1;"
         offset="0"
         id="stop10" /><stop
         style="stop-color:#ff8d00;stop-opacity:1;"
         offset="0"
         id="stop11" /></linearGradient><linearGradient
       id="linearGradient15"
       inkscape:collect="always"><stop
         style="stop-color:#ff9a00;stop-opacity:1;"
         offset="0"
         id="stop16" /><stop
         style="stop-color:#000000;stop-opacity:1;"
         offset="1"
         id="stop15" /></linearGradient><linearGradient
       inkscape:collect="always"
       xlink:href="#linearGradient15"
       id="linearGradient16"
       x1="192.11327"
       y1="294.03456"
       x2="320.11327"
       y2="294.03456"
       gradientUnits="userSpaceOnUse" /><linearGradient
       inkscape:collect="always"
       xlink:href="#linearGradient10"
       id="linearGradient11"
       x1="256.09656"
       y1="257.22635"
       x2="256.13"
       y2="321.52637"
       gradientUnits="userSpaceOnUse" /><filter
       style="color-interpolation-filters:sRGB;"
       inkscape:label="Drop Shadow"
       id="filter20"
       x="-0.080773896"
       y="-0.16203357"
       width="1.1328996"
       height="1.266198"><feFlood
         result="flood"
         in="SourceGraphic"
         flood-opacity="0.498039"
         flood-color="rgb(0,0,0)"
         id="feFlood19" /><feGaussianBlur
         result="blur"
         in="SourceGraphic"
         stdDeviation="3.000000"
         id="feGaussianBlur19" /><feOffset
         result="offset"
         in="blur"
         dx="-3.957098"
         dy="-4.000000"
         id="feOffset19" /><feComposite
         result="comp1"
         operator="in"
         in="flood"
         in2="offset"
         id="feComposite19" /><feComposite
         result="comp2"
         operator="over"
         in="SourceGraphic"
         in2="comp1"
         id="feComposite20" /></filter></defs><g
     inkscape:label="Layer 1"
     inkscape:groupmode="layer"
     id="layer1"><path
       style="fill:none;fill-opacity:1;stroke:#3e7bb6;stroke-width:29.7469;stroke-linecap:butt;stroke-linejoin:round;stroke-dasharray:none;stroke-opacity:1"
       d="M 62.456983,86.873431 H 449.54306 c 18.05127,0 32.58353,14.532259 32.58353,32.583529 v 254.38479 c 0,18.05129 -14.53226,40.51603 -32.58353,40.51603 H 62.456983 c -18.051277,0 -32.583533,-22.46474 -32.583533,-40.51603 V 119.45696 c 0,-18.05127 14.532256,-32.583529 32.583533,-32.583529 z"
       id="path13" /><path
       style="fill:none;fill-opacity:1;stroke:#3e7bb6;stroke-width:29.047;stroke-linecap:butt;stroke-linejoin:round;stroke-dasharray:none;stroke-opacity:1"
       d="M 34.033456,97.608793 214.31263,225.39813"
       id="path12"
       sodipodi:nodetypes="cc" /><path
       style="fill:none;fill-opacity:1;stroke:#3e7bb6;stroke-width:29.7469;stroke-linecap:butt;stroke-linejoin:round;stroke-dasharray:none;stroke-opacity:1"
       d="M 471.29446,102.72564 297.17918,225.86991"
       id="path6-9"
       sodipodi:nodetypes="cc" /><g
       id="g1"
       transform="matrix(2.2751196,0,0,2.2751196,-329.71257,-372.14483)"
       style="fill:#ff8d00;fill-opacity:1;stroke:none;stroke-width:0.99994743;stroke-dasharray:none;stroke-opacity:1;filter:url(#filter20)">
	<path
   class="st0"
   d="m 323.72067,272.20229 c -2.63548,-6.21115 -7.01375,-11.48185 -12.53345,-15.21264 -2.74663,-1.8542 -5.78571,-3.32909 -9.04735,-4.33483 -3.23979,-1.02759 -6.70188,-1.56418 -10.27539,-1.56418 -4.58141,0 -8.98207,0.89459 -13.0026,2.52649 -0.33615,0.13273 -0.64801,0.266 -0.95988,0.42301 -3.61937,1.58604 -6.92661,3.82009 -9.76281,6.47932 -0.91617,0.87058 -1.78675,1.78675 -2.65949,2.81434 -1.54018,1.76491 -3.12622,3.79824 -4.66855,5.85316 -0.31214,0.42301 -0.64801,0.87031 -0.95988,1.29602 -0.84873,1.1606 -8.95994,13.04604 -10.38897,15.16867 -0.71545,1.07103 -1.56418,2.27748 -2.48063,3.59536 -0.20071,0.29028 -0.42301,0.60431 -0.64558,0.91617 -1.52048,2.16661 -3.21794,4.44625 -4.78213,6.45773 -0.78101,1.00359 -1.56418,1.94161 -2.23405,2.72478 -0.69144,0.80287 -1.3176,1.45088 -1.7649,1.87606 -1.91976,1.8086 -4.17782,3.28349 -6.65602,4.28923 -2.48036,1.00574 -5.18356,1.56419 -8.04377,1.56419 -1.96562,0 -3.86379,-0.2687 -5.65027,-0.75943 -0.91618,-0.24631 -1.81077,-0.55845 -2.68135,-0.93803 -3.84383,-1.61005 -7.12733,-4.33483 -9.42882,-7.75348 -1.1606,-1.71904 -2.07704,-3.59537 -2.70293,-5.60685 -0.60242,-2.01148 -0.95988,-4.13195 -0.95988,-6.366 0,-2.97136 0.60431,-5.76386 1.67534,-8.33405 1.6319,-3.84168 4.35668,-7.10305 7.77533,-9.42667 1.71904,-1.16275 3.5951,-2.05518 5.60658,-2.68134 2.00932,-0.62616 4.13195,-0.98146 6.366,-0.98146 2.86021,0.0216 5.56341,0.55844 8.04377,1.56202 2.47847,1.02733 4.73626,2.48036 6.65602,4.28897 0.4473,0.42544 1.07346,1.09504 1.7649,1.87821 1.20646,1.40717 2.63549,3.21578 4.06667,5.11611 0.55845,0.75917 1.11689,1.51833 1.67534,2.29934 2.14448,-3.12621 5.89685,-8.62191 7.86247,-11.46026 -0.33372,-0.4473 -0.66959,-0.89217 -1.00358,-1.33946 -0.89459,-1.14117 -1.78891,-2.23405 -2.68108,-3.23979 -0.89459,-1.0276 -1.74332,-1.94377 -2.65949,-2.81435 -3.08251,-2.90608 -6.72346,-5.27286 -10.72269,-6.9026 -4.0208,-1.6319 -8.42308,-2.52649 -13.00233,-2.52649 -4.75811,0 -9.31551,0.96203 -13.46932,2.72694 -6.21088,2.61363 -11.46215,6.99216 -15.19294,12.50944 -1.8542,2.74906 -3.32693,5.80756 -4.35453,9.04735 -1.00547,3.26245 -1.54206,6.70296 -1.54206,10.27863 0,4.75811 0.95988,9.31551 2.7032,13.44746 2.63521,6.23301 7.01375,11.48428 12.50944,15.2148 2.77064,1.85447 5.80972,3.32693 9.07109,4.35453 3.23952,1.00574 6.70188,1.54233 10.27539,1.54233 4.57925,0 8.9818,-0.89459 13.00233,-2.52406 3.99923,-1.63191 7.61833,-3.99923 10.70111,-6.88102 l 0.0216,-0.0219 c 0.91644,-0.84872 1.76517,-1.78891 2.65949,-2.8165 1.54018,-1.7649 3.12622,-3.79608 4.66855,-5.85127 0.31214,-0.42544 0.64801,-0.85088 0.95988,-1.27417 0.84873,-1.1846 11.95315,-17.47043 12.86744,-18.78804 0.20287,-0.29028 0.42544,-0.60215 0.64774,-0.91617 1.52075,-2.14475 3.21794,-4.44598 4.78213,-6.4553 0.78101,-1.00574 1.56418,-1.94404 2.23405,-2.72505 0.69171,-0.80503 1.31787,-1.45304 1.7649,-1.87821 1.91976,-1.80861 4.17782,-3.26165 6.65629,-4.28897 0.60431,-0.24442 1.20646,-0.44487 1.83235,-0.64801 1.96562,-0.58003 4.04238,-0.89217 6.21115,-0.91402 2.97109,0.0216 5.78571,0.60215 8.33135,1.69719 3.84194,1.60789 7.1276,4.33267 9.42693,7.75133 1.16276,1.72119 2.07893,3.59752 2.70293,5.60657 0.62616,2.01148 0.96204,4.13411 0.96204,6.36816 0,2.97136 -0.60431,5.78571 -1.67534,8.33163 -1.6319,3.84167 -4.35668,7.12732 -7.77533,9.42666 -1.71904,1.16275 -3.5951,2.0792 -5.60658,2.68135 -1.98747,0.62616 -4.13195,0.98415 -6.366,0.98415 -2.86021,0 -5.56341,-0.55844 -8.04377,-1.56418 -2.47847,-1.00574 -4.73653,-2.48063 -6.65629,-4.28924 -0.4473,-0.42544 -1.07346,-1.09504 -1.7649,-1.87605 -1.20646,-1.38532 -2.63737,-3.21794 -4.06667,-5.11584 -0.58003,-0.75943 -1.13874,-1.54261 -1.69719,-2.32362 -0.17886,0.26816 -0.35773,0.53686 -0.55844,0.82688 -3.68682,5.40612 -6.01044,8.82451 -7.28245,10.67682 0.33372,0.4473 0.66986,0.87274 1.00358,1.32003 0.89459,1.13875 1.78891,2.23406 2.68108,3.23737 0.87247,1.02732 1.74332,1.96778 2.65949,2.8165 3.08251,2.90365 6.72373,5.27097 10.72269,6.90287 4.0208,1.62947 8.42119,2.52407 13.0026,2.52407 4.75784,0 9.31551,-0.95988 13.44747,-2.70293 6.23273,-2.63549 11.48184,-7.01402 15.21452,-12.53345 1.85232,-2.74664 3.35094,-5.78571 4.35453,-9.04736 1.00628,-3.23979 1.54314,-6.70188 1.54314,-10.27539 0,-4.75811 -0.95988,-9.31551 -2.7032,-13.44962 z"
   id="path1-9"
   style="fill:#ff8d00;fill-opacity:1;stroke:none;stroke-width:0.99994743;stroke-dasharray:none;stroke-opacity:1" />
</g></g><style
     type="text/css"
     id="style1">
	.st0{fill:#000000;}
</style></svg>
